<svg width="60" height="14" viewBox="0 0 60 14" fill="none" xmlns="http://www.w3.org/2000/svg">
<path fill-rule="evenodd" clip-rule="evenodd" d="M52.6949 0.880761C53.1948 0.37308 54.0052 0.37308 54.5051 0.880761L59.6251 6.08076C60.125 6.58844 60.125 7.41156 59.6251 7.91924L54.5051 13.1192C54.0052 13.6269 53.1948 13.6269 52.6949 13.1192C52.195 12.6116 52.195 11.7884 52.6949 11.2808L55.6298 8.3H1.28C0.573075 8.3 0 7.71797 0 7C0 6.28203 0.573075 5.7 1.28 5.7C11.5702 5.7 45.3396 5.7 55.6298 5.7L52.6949 2.71924C52.195 2.21156 52.195 1.38844 52.6949 0.880761Z" fill="white"/>
</svg>
