<svg width="13" height="12" viewBox="0 0 13 12" fill="none" xmlns="http://www.w3.org/2000/svg">
<path d="M11.9482 9.56525L11.8885 9.38525C11.747 8.96471 11.2832 8.5261 10.8572 8.41055L9.28034 7.97979C8.85273 7.86345 8.24275 8.01988 7.92989 8.33272L7.35921 8.90341C5.28521 8.34298 3.65888 6.7166 3.09921 4.64301L3.66992 4.0723C3.98278 3.75944 4.13919 3.15027 4.02285 2.72266L3.59288 1.14505C3.47654 0.718214 3.03713 0.254456 2.61739 0.114527L2.4374 0.0540069C2.01685 -0.0859227 1.41709 0.0555916 1.10425 0.368427L0.250589 1.22287C0.0980828 1.37457 0.000612541 1.80847 0.000612541 1.81006C-0.0292448 4.52036 1.0335 7.13161 2.95066 9.04879C4.86311 10.9612 7.46457 12.0224 10.167 11.9996C10.1811 11.9996 10.6276 11.9037 10.7801 11.752L11.6338 10.8983C11.9466 10.5855 12.0881 9.98579 11.9482 9.56525Z" fill="#4E9E20"/>
</svg>
