<svg width="110" height="33" viewBox="0 0 110 33" fill="none" xmlns="http://www.w3.org/2000/svg">
<path d="M30.9873 31.3461C30.0199 31.3461 29.0915 31.2057 28.21 30.9171C27.3284 30.6206 26.6185 30.2305 26.088 29.739C25.8929 29.5596 25.7993 29.3334 25.7993 29.0681C25.7993 28.8809 25.8461 28.7249 25.9553 28.5922C26.0568 28.4518 26.1816 28.3894 26.322 28.3894C26.4858 28.3894 26.6731 28.4596 26.8603 28.6C28.0617 29.5284 29.4348 29.9965 30.9717 29.9965C32.0795 29.9965 32.9298 29.7781 33.5227 29.3568C34.1156 28.9277 34.4121 28.3192 34.4121 27.539C34.4121 27.0866 34.2717 26.7199 33.9908 26.439C33.7022 26.166 33.3277 25.9398 32.8674 25.7759C32.3993 25.6043 31.7752 25.4327 30.9873 25.2532C29.9263 25.0036 29.0603 24.7461 28.3816 24.4731C27.7029 24.2078 27.1568 23.8178 26.7355 23.3185C26.3142 22.8114 26.1114 22.1561 26.1114 21.3369C26.1114 20.5646 26.3142 19.8781 26.7355 19.2773C27.1568 18.6766 27.7419 18.2164 28.4986 17.8809C29.2553 17.5532 30.1135 17.3894 31.0809 17.3894C31.9858 17.3894 32.8284 17.5298 33.6085 17.8029C34.3887 18.0837 35.044 18.4816 35.5745 18.9965C35.7851 19.2071 35.8865 19.4334 35.8865 19.6752C35.8865 19.8547 35.8319 20.0107 35.7305 20.1511C35.6291 20.2837 35.5043 20.3539 35.3639 20.3539C35.2234 20.3539 35.0362 20.2837 34.8022 20.1433C34.1702 19.6206 33.5851 19.2617 33.039 19.0589C32.5007 18.8483 31.8454 18.7469 31.0809 18.7469C30.0121 18.7469 29.1773 18.9653 28.5844 19.41C27.9915 19.8625 27.6951 20.4788 27.6951 21.2823C27.6951 21.9688 27.9603 22.4759 28.483 22.8192C29.0057 23.1625 29.8092 23.4667 30.8936 23.7242C32.0639 24.005 32.9844 24.2703 33.6553 24.5043C34.3341 24.7461 34.888 25.105 35.3326 25.5809C35.7773 26.0568 36.0036 26.6965 36.0036 27.5C36.0036 28.2568 35.7929 28.9277 35.3717 29.5128C34.9504 30.0901 34.3653 30.5426 33.6007 30.8625C32.8362 31.1901 31.9702 31.3461 30.9873 31.3461ZM46.8085 17.7561C46.9646 17.561 47.1518 17.4674 47.3702 17.4674C47.5497 17.4674 47.7057 17.5376 47.8539 17.6781C47.9943 17.8263 48.0646 17.9979 48.0646 18.2008C48.0646 18.3958 48.0099 18.5596 47.8929 18.6844L43.1887 24.6291V30.4802C43.1887 30.7376 43.1107 30.9405 42.9624 31.0809C42.8142 31.2213 42.627 31.2915 42.3929 31.2915C42.1589 31.2915 41.9717 31.2213 41.8234 31.0809C41.6752 30.9405 41.5972 30.7376 41.5972 30.4802V24.6135L36.8929 18.6844C36.7603 18.544 36.6979 18.3802 36.6979 18.2008C36.6979 17.9979 36.7759 17.8263 36.9241 17.6781C37.0724 17.5376 37.244 17.4674 37.4312 17.4674C37.6575 17.4674 37.8447 17.561 37.9929 17.7561L42.4085 23.3887L46.8085 17.7561ZM53.7986 31.3461C52.8312 31.3461 51.9029 31.2057 51.0135 30.9171C50.1319 30.6206 49.4298 30.2305 48.8993 29.739C48.7043 29.5596 48.6029 29.3334 48.6029 29.0681C48.6029 28.8809 48.6575 28.7249 48.7589 28.5922C48.8681 28.4518 48.9851 28.3894 49.1256 28.3894C49.2972 28.3894 49.4766 28.4596 49.6716 28.6C50.8731 29.5284 52.2383 29.9965 53.7752 29.9965C54.883 29.9965 55.7412 29.7781 56.3341 29.3568C56.927 28.9277 57.2234 28.3192 57.2234 27.539C57.2234 27.0866 57.083 26.7199 56.7943 26.439C56.5135 26.166 56.139 25.9398 55.6709 25.7759C55.2107 25.6043 54.5865 25.4327 53.7986 25.2532C52.7376 25.0036 51.8717 24.7461 51.1929 24.4731C50.5142 24.2078 49.9681 23.8178 49.5468 23.3185C49.1256 22.8114 48.9149 22.1561 48.9149 21.3369C48.9149 20.5646 49.1256 19.8781 49.5468 19.2773C49.9681 18.6766 50.5532 18.2164 51.3099 17.8809C52.0589 17.5532 52.9248 17.3894 53.8922 17.3894C54.7972 17.3894 55.6397 17.5298 56.4199 17.8029C57.2 18.0837 57.8553 18.4816 58.3858 18.9965C58.5887 19.2071 58.6979 19.4334 58.6979 19.6752C58.6979 19.8547 58.6433 20.0107 58.5419 20.1511C58.4326 20.2837 58.3156 20.3539 58.1674 20.3539C58.027 20.3539 57.8397 20.2837 57.6135 20.1433C56.9738 19.6206 56.3887 19.2617 55.8504 19.0589C55.3043 18.8483 54.6568 18.7469 53.8922 18.7469C52.8234 18.7469 51.9887 18.9653 51.3958 19.41C50.8029 19.8625 50.5064 20.4788 50.5064 21.2823C50.5064 21.9688 50.7638 22.4759 51.2865 22.8192C51.8092 23.1625 52.6128 23.4667 53.6972 23.7242C54.8752 24.005 55.7958 24.2703 56.4667 24.5043C57.1376 24.7461 57.6993 25.105 58.144 25.5809C58.5887 26.0568 58.8071 26.6965 58.8071 27.5C58.8071 28.2568 58.6043 28.9277 58.183 29.5128C57.7617 30.0901 57.1688 30.5426 56.4121 30.8625C55.6475 31.1901 54.7738 31.3461 53.7986 31.3461ZM65.1965 31.2915C64.9546 31.2915 64.7596 31.2213 64.6114 31.0731C64.4631 30.9171 64.3851 30.722 64.3851 30.4802V18.9029H60.227C59.9929 18.9029 59.8135 18.8405 59.6809 18.7234C59.556 18.6064 59.4858 18.4426 59.4858 18.2242C59.4858 18.0057 59.556 17.8341 59.6809 17.7171C59.8135 17.6 59.9929 17.5454 60.227 17.5454H70.1582C70.3922 17.5454 70.5716 17.6 70.6965 17.7171C70.8291 17.8341 70.8915 18.0057 70.8915 18.2242C70.8915 18.4426 70.8291 18.6064 70.6965 18.7234C70.5716 18.8405 70.3922 18.9029 70.1582 18.9029H65.9922V30.4802C65.9922 30.722 65.922 30.9171 65.7816 31.0731C65.6412 31.2213 65.4461 31.2915 65.1965 31.2915ZM73.4894 31.1979C73.2397 31.1979 73.0447 31.1277 72.8965 30.9795C72.7482 30.839 72.6702 30.6518 72.6702 30.4178V18.3178C72.6702 18.0837 72.7482 17.8965 72.8965 17.7561C73.0447 17.6156 73.2397 17.5454 73.4894 17.5454H80.7291C80.9631 17.5454 81.1426 17.6 81.2674 17.7171C81.4 17.8341 81.4624 17.9979 81.4624 18.2008C81.4624 18.4114 81.4 18.5674 81.2674 18.6844C81.1426 18.8015 80.9631 18.8639 80.7291 18.8639H74.2383V23.6071H80.339C80.5731 23.6071 80.7525 23.6617 80.8851 23.7788C81.0099 23.8958 81.0802 24.0596 81.0802 24.2625C81.0802 24.4731 81.0099 24.6291 80.8851 24.7461C80.7525 24.8632 80.5731 24.9256 80.339 24.9256H74.2383V29.8795H80.7291C80.9631 29.8795 81.1426 29.9341 81.2674 30.0433C81.4 30.1525 81.4624 30.3164 81.4624 30.5348C81.4624 30.7454 81.4 30.9015 81.2674 31.0185C81.1426 31.1355 80.9631 31.1979 80.7291 31.1979H73.4894ZM96.0589 17.4518C96.3085 17.4518 96.4958 17.522 96.6362 17.6703C96.7688 17.8185 96.839 18.0135 96.839 18.2632V30.5192C96.839 30.7532 96.7688 30.9405 96.644 31.0809C96.5114 31.2213 96.3319 31.2915 96.0979 31.2915C95.8716 31.2915 95.6922 31.2213 95.5752 31.0809C95.466 30.9405 95.4035 30.7532 95.4035 30.5192V20.627L91.2064 28.6781C91.0192 29.0525 90.7539 29.2398 90.4106 29.2398C90.0752 29.2398 89.8099 29.0525 89.6149 28.6781L85.3943 20.7206V30.5192C85.3943 30.7532 85.3319 30.9405 85.2071 31.0809C85.0901 31.2213 84.9106 31.2915 84.6766 31.2915C84.4426 31.2915 84.2631 31.2213 84.1383 31.0809C84.0057 30.9405 83.9433 30.7532 83.9433 30.5192V18.2632C83.9433 18.0135 84.0135 17.8185 84.1539 17.6703C84.2943 17.522 84.4894 17.4518 84.739 17.4518C85.0589 17.4518 85.3163 17.639 85.5114 18.0135L90.4262 27.4376L95.2865 18.0135C95.3879 17.8029 95.505 17.6547 95.6298 17.5766C95.7468 17.4908 95.895 17.4518 96.0589 17.4518ZM104.578 31.3461C103.611 31.3461 102.69 31.2057 101.801 30.9171C100.919 30.6206 100.209 30.2305 99.6865 29.739C99.4915 29.5596 99.3901 29.3334 99.3901 29.0681C99.3901 28.8809 99.4447 28.7249 99.5461 28.5922C99.6475 28.4518 99.7723 28.3894 99.9128 28.3894C100.084 28.3894 100.264 28.4596 100.459 28.6C101.66 29.5284 103.026 29.9965 104.562 29.9965C105.67 29.9965 106.521 29.7781 107.121 29.3568C107.714 28.9277 108.011 28.3192 108.011 27.539C108.011 27.0866 107.87 26.7199 107.582 26.439C107.301 26.166 106.926 25.9398 106.458 25.7759C105.998 25.6043 105.366 25.4327 104.578 25.2532C103.525 25.0036 102.659 24.7461 101.98 24.4731C101.301 24.2078 100.748 23.8178 100.334 23.3185C99.9128 22.8114 99.7021 22.1561 99.7021 21.3369C99.7021 20.5646 99.9128 19.8781 100.334 19.2773C100.748 18.6766 101.34 18.2164 102.097 17.8809C102.846 17.5532 103.712 17.3894 104.679 17.3894C105.584 17.3894 106.427 17.5298 107.207 17.8029C107.987 18.0837 108.643 18.4816 109.173 18.9965C109.376 19.2071 109.477 19.4334 109.477 19.6752C109.477 19.8547 109.43 20.0107 109.329 20.1511C109.22 20.2837 109.103 20.3539 108.955 20.3539C108.814 20.3539 108.627 20.2837 108.393 20.1433C107.761 19.6206 107.176 19.2617 106.638 19.0589C106.091 18.8483 105.436 18.7469 104.679 18.7469C103.611 18.7469 102.776 18.9653 102.183 19.41C101.59 19.8625 101.294 20.4788 101.294 21.2823C101.294 21.9688 101.551 22.4759 102.074 22.8192C102.596 23.1625 103.4 23.4667 104.484 23.7242C105.662 24.005 106.583 24.2703 107.254 24.5043C107.925 24.7461 108.487 25.105 108.931 25.5809C109.376 26.0568 109.594 26.6965 109.594 27.5C109.594 28.2568 109.384 28.9277 108.97 29.5128C108.549 30.0901 107.956 30.5426 107.199 30.8625C106.435 31.1901 105.561 31.3461 104.578 31.3461Z" fill="#1A1A1A"/>
<path d="M26.8603 13.0596C26.5405 13.0596 26.283 12.9582 26.088 12.7632C25.8929 12.5603 25.7993 12.3029 25.7993 11.983V2.27025C25.7993 1.9504 25.8929 1.69295 26.088 1.49791C26.283 1.30288 26.5405 1.20926 26.8603 1.20926C27.188 1.20926 27.4532 1.30288 27.6405 1.49791C27.8355 1.69295 27.9369 1.9504 27.9369 2.27025V11.983C27.9369 12.3029 27.8355 12.5603 27.6405 12.7632C27.4532 12.9582 27.188 13.0596 26.8603 13.0596ZM39.288 1.20926C39.5922 1.20926 39.8419 1.30288 40.0213 1.49791C40.2085 1.69295 40.2944 1.9504 40.2944 2.27025V11.983C40.2944 12.3029 40.2007 12.5603 40.0135 12.7632C39.8263 12.9582 39.5844 13.0596 39.288 13.0596C38.9369 13.0596 38.6639 12.9348 38.4766 12.6773L32.4383 4.82132V11.983C32.4383 12.3029 32.3447 12.5603 32.1731 12.7632C31.9936 12.9582 31.7518 13.0596 31.4397 13.0596C31.1355 13.0596 30.8936 12.9582 30.7142 12.7632C30.5348 12.5603 30.449 12.3029 30.449 11.983V2.27025C30.449 1.9504 30.5426 1.69295 30.7298 1.49791C30.917 1.30288 31.1667 1.20926 31.4709 1.20926C31.8142 1.20926 32.0795 1.33408 32.2667 1.59153L38.2894 9.41635V2.27025C38.2894 1.9504 38.383 1.69295 38.5702 1.49791C38.7497 1.30288 38.9915 1.20926 39.288 1.20926ZM51.6454 1.20926C51.9575 1.20926 52.2071 1.30288 52.3866 1.49791C52.566 1.69295 52.6596 1.9504 52.6596 2.27025V11.983C52.6596 12.3029 52.566 12.5603 52.3788 12.7632C52.1915 12.9582 51.9497 13.0596 51.6454 13.0596C51.2944 13.0596 51.0291 12.9348 50.8419 12.6773L44.7958 4.82132V11.983C44.7958 12.3029 44.71 12.5603 44.5305 12.7632C44.3589 12.9582 44.1171 13.0596 43.805 13.0596C43.4929 13.0596 43.2511 12.9582 43.0795 12.7632C42.9 12.5603 42.8142 12.3029 42.8142 11.983V2.27025C42.8142 1.9504 42.9078 1.69295 43.0951 1.49791C43.2823 1.30288 43.5319 1.20926 43.8362 1.20926C44.1795 1.20926 44.4447 1.33408 44.6319 1.59153L50.6546 9.41635V2.27025C50.6546 1.9504 50.7483 1.69295 50.9277 1.49791C51.1149 1.30288 51.349 1.20926 51.6454 1.20926ZM60.3674 13.1064C59.2362 13.1064 58.2532 12.8646 57.4185 12.3809C56.5837 11.8972 55.944 11.2029 55.4915 10.2979C55.039 9.39295 54.8128 8.33196 54.8128 7.11494C54.8128 5.90572 55.0312 4.84472 55.4837 3.94756C55.9284 3.0504 56.5681 2.35607 57.4107 1.87238C58.2454 1.38869 59.2362 1.14685 60.3674 1.14685C61.5064 1.14685 62.4894 1.38869 63.3241 1.87238C64.1589 2.35607 64.7986 3.0504 65.2433 3.94756C65.688 4.84472 65.9142 5.90572 65.9142 7.11494C65.9142 8.33196 65.688 9.39295 65.2355 10.2979C64.783 11.2029 64.1433 11.8972 63.3085 12.3809C62.4738 12.8646 61.4986 13.1064 60.3674 13.1064ZM60.3674 11.4057C61.444 11.4057 62.2788 11.0312 62.8795 10.2979C63.4802 9.55678 63.7766 8.49579 63.7766 7.11494C63.7766 5.74189 63.4802 4.68089 62.8795 3.94756C62.2788 3.21423 61.444 2.84756 60.3674 2.84756C59.2908 2.84756 58.4483 3.21423 57.8475 3.94756C57.2468 4.68089 56.9426 5.74189 56.9426 7.11494C56.9426 8.49579 57.2468 9.55678 57.8475 10.2979C58.4483 11.0312 59.2908 11.4057 60.3674 11.4057Z" fill="#4E9E20"/>
<path d="M71.7341 8.15263C71.4298 8.15263 71.1489 8.0278 70.9539 7.83277C70.7511 7.62993 70.6263 7.35688 70.6263 7.05263C70.6263 6.74837 70.7511 6.46752 70.9539 6.27248C71.1489 6.06965 71.4298 5.94482 71.7341 5.94482H108.689C108.994 5.94482 109.267 6.06965 109.47 6.27248C109.672 6.46752 109.797 6.74837 109.797 7.05263C109.797 7.35688 109.672 7.62993 109.47 7.83277C109.267 8.0278 108.994 8.15263 108.689 8.15263H71.7341Z" fill="#4E9E20"/>
<path d="M18.7936 2.10648C18.7936 1.82563 18.9106 1.57598 19.0901 1.39655C19.2695 1.21712 19.5192 1.1001 19.8 1.1001C20.0731 1.1001 20.3227 1.21712 20.5099 1.39655C20.6894 1.57598 20.7986 1.83343 20.7986 2.10648V30.8937C20.7986 31.1746 20.6894 31.4242 20.5099 31.6036C20.3227 31.7831 20.0731 31.9001 19.8 31.9001C19.5738 31.9001 19.3631 31.8221 19.1915 31.6973C19.0199 31.5646 18.895 31.3852 18.8326 31.1746L10.6567 5.25045L6.84186 15.9228C6.76384 16.1256 6.63122 16.2895 6.47519 16.4065C6.30356 16.5235 6.10072 16.5859 5.89008 16.5859H1.20923C0.936184 16.5859 0.686538 16.4767 0.499304 16.2973C0.319872 16.11 0.20285 15.8604 0.20285 15.5873C0.20285 15.3143 0.319872 15.0568 0.499304 14.8774C0.686538 14.698 0.936184 14.5809 1.20923 14.5809H5.18796L9.76739 1.77882C9.8142 1.63059 9.90001 1.49797 10.0092 1.38875C10.1185 1.27953 10.2589 1.20152 10.4071 1.14691H10.4149C10.6724 1.06889 10.9454 1.1001 11.1716 1.21712C11.3979 1.33414 11.5773 1.52918 11.6631 1.78662C13.988 6.76393 16.9447 18.5129 18.7936 24.3795V2.10648Z" fill="#4E9E20"/>
</svg>
