<svg width="60" height="13" viewBox="0 0 60 13" fill="none" xmlns="http://www.w3.org/2000/svg">
<path fill-rule="evenodd" clip-rule="evenodd" d="M52.6949 0.380761C53.1948 -0.12692 54.0052 -0.12692 54.5051 0.380761L59.6251 5.58076C60.125 6.08844 60.125 6.91156 59.6251 7.41924L54.5051 12.6192C54.0052 13.1269 53.1948 13.1269 52.6949 12.6192C52.195 12.1116 52.195 11.2884 52.6949 10.7808L55.6298 7.8H1.28C0.573075 7.8 0 7.21797 0 6.5C0 5.78203 0.573075 5.2 1.28 5.2C11.5702 5.2 45.3396 5.2 55.6298 5.2L52.6949 2.21924C52.195 1.71156 52.195 0.888443 52.6949 0.380761Z" fill="#4E9E20"/>
</svg>
