<svg width="34" height="23" viewBox="0 0 34 23" fill="none" xmlns="http://www.w3.org/2000/svg">
<path d="M31.3636 0H2.09091C0.936727 0 0 0.936727 0 2.09091V20.9091C0 22.0633 0.936727 23 2.09091 23H31.3636C32.5178 23 33.4545 22.0633 33.4545 20.9091V2.09091C33.4545 0.936727 32.5178 0 31.3636 0ZM29.487 2.09091L16.7273 14.6364L4.06786 2.09091H29.487ZM2.09091 20.9091V3.14264L12.1158 13.1675L4.24559 20.9091H2.09091ZM7.3025 20.9091L13.6599 14.7127L15.3117 16.3635C16.1282 17.18 17.4518 17.18 18.2693 16.3635L19.8699 14.7629L26.2273 20.9091H7.3025ZM31.3636 20.9091H29.3365L21.4674 13.1675L31.3636 3.27018V20.9091Z" fill="white"/>
</svg>
