<svg width="20" height="27" viewBox="0 0 20 27" fill="none" xmlns="http://www.w3.org/2000/svg">
<path d="M10.2391 26L10.1642 26.0662C10.1832 26.0877 10.2105 26.1 10.2391 26.1C10.2678 26.1 10.2951 26.0877 10.314 26.0662L10.2391 26ZM10.2391 26L10.314 26.0662L10.3141 26.0662L10.3141 26.0661L10.3144 26.0658L10.3154 26.0647L10.3194 26.0602L10.3351 26.0423L10.3963 25.9723C10.45 25.9108 10.5288 25.8199 10.6297 25.7023C10.8315 25.467 11.1216 25.125 11.4747 24.6976C12.716 23.1952 14.7391 20.6348 16.4524 17.9443C17.309 16.5991 18.0895 15.2194 18.6561 13.9217C19.2219 12.6258 19.5783 11.4033 19.5783 10.375C19.5783 7.86254 18.5947 5.4527 16.8434 3.67568C15.0921 1.89862 12.7165 0.9 10.2391 0.9C7.76176 0.9 5.38616 1.89862 3.63485 3.67568C1.88359 5.4527 0.9 7.86254 0.9 10.375C0.9 11.4033 1.25633 12.6258 1.82216 13.9217C2.38876 15.2194 3.16923 16.5991 4.02586 17.9443C5.73919 20.6348 7.7623 23.1952 9.00355 24.6976C9.35671 25.125 9.64673 25.467 9.84853 25.7023C9.94943 25.8199 10.0283 25.9108 10.0819 25.9723L10.1431 26.0423L10.1588 26.0602L10.1628 26.0647L10.1639 26.0658L10.1641 26.0661L10.1642 26.0662L10.1642 26.0662L10.2391 26ZM17.6184 10.375C17.6184 11.1982 17.2192 12.4856 16.3807 14.1387C15.5732 15.7307 14.4761 17.4379 13.3484 19.029C12.2255 20.6133 11.0987 22.0456 10.2504 23.0839L10.2391 23.0978L10.2278 23.0839C9.3796 22.0456 8.25274 20.6133 7.12987 19.029C6.00216 17.4379 4.90511 15.7307 4.09753 14.1387C3.25903 12.4856 2.85983 11.1982 2.85983 10.375C2.85983 8.38825 3.63764 6.48316 5.02169 5.07876C6.4057 3.6744 8.28249 2.88571 10.2391 2.88571C12.1958 2.88571 14.0726 3.6744 15.4566 5.07876C16.8406 6.48316 17.6184 8.38825 17.6184 10.375ZM8.75524 9.75C8.75524 8.91625 9.42095 8.24286 10.2391 8.24286C11.0572 8.24286 11.7229 8.91625 11.7229 9.75C11.7229 10.5838 11.0572 11.2571 10.2391 11.2571C9.42095 11.2571 8.75524 10.5838 8.75524 9.75ZM10.2391 6.25714C8.33582 6.25714 6.7954 7.82233 6.7954 9.75C6.7954 11.6777 8.33582 13.2429 10.2391 13.2429C12.1424 13.2429 13.6828 11.6777 13.6828 9.75C13.6828 7.82233 12.1424 6.25714 10.2391 6.25714Z" fill="white" stroke="white" stroke-width="0.2" stroke-linecap="round" stroke-linejoin="round"/>
</svg>
