<svg width="26" height="25" viewBox="0 0 26 25" fill="none" xmlns="http://www.w3.org/2000/svg">
<path d="M24.8926 19.9314L24.7677 19.5516C24.4747 18.6781 23.5089 17.7665 22.6191 17.5223L19.3337 16.6243C18.4439 16.3829 17.1742 16.7084 16.5205 17.3622L15.3322 18.5505C11.0132 17.3812 7.62471 13.9928 6.4581 9.67375L7.64641 8.48543C8.29752 7.83432 8.62308 6.56466 8.38164 5.67212L7.48624 2.38671C7.24481 1.49686 6.32779 0.531051 5.45426 0.238052L5.07983 0.113213C4.20352 -0.179786 2.95287 0.115904 2.30176 0.769791L0.522065 2.54949C0.204671 2.86419 0.00117795 3.77036 0.00117795 3.77036C-0.0585504 9.41877 2.15531 14.8582 6.14877 18.8544C10.1314 22.837 15.5519 25.0482 21.1812 24.9992C21.2111 24.9992 22.1417 24.8012 22.4591 24.4837L24.2388 22.704C24.8899 22.0556 25.1828 20.8049 24.8926 19.9314Z" fill="white"/>
</svg>
